#!OML:ASF F:\VICON\USERDATA\INSTALL\rory3\rory3.ASF
:FULLY-SPECIFIED
:DEGREES
1058
root -0.378624 16.5737 16.6955 -168.777 -20.7161 -176.809
lowerback 3.05246 2.45674 1.99146
upperback -3.26909 3.38122 1.86967
thorax -5.09054 1.59762 0.574666
lowerneck -6.65455 2.92656 -0.189223
upperneck 37.8708 -1.43709 4.33457
head 14.0688 -1.47241 1.26486
rclavicle 1.39149e-014 -1.11319e-014
rhumerus -75.9226 47.6027 -125.498
rradius 50.8083
rwrist -44.014
rhand 16.3094 -0.0268569
rfingers 7.12502
rthumb 41.0827 -24.9169
lclavicle 1.39149e-014 -1.11319e-014
lhumerus -46.7098 -54.6352 89.8955
lradius 98.1464
lwrist 11.2737
lhand 31.4887 29.379
lfingers 7.12502
lthumb 55.0401 47.4886
rfemur -22.8146 -1.94461 34.8379
rtibia 37.1262
rfoot -34.9714 -27.7332
rtoes 26.0665
lfemur -49.2271 5.77037 -16.049
ltibia 54.2222
lfoot -18.1383 19.7222
ltoes -13.7989
1059
root -0.391526 16.5766 16.6839 -168.942 -20.8086 -176.792
lowerback 3.43592 2.38635 1.96726
upperback -3.15875 3.30429 1.95406
thorax -5.20051 1.56291 0.666471
lowerneck -6.7655 2.88503 -0.350911
upperneck 37.6707 -1.42317 4.41778
head 13.9981 -1.45929 1.33168
rclavicle 6.87298e-014 1.59028e-014
rhumerus -75.5141 47.9006 -125.011
rradius 50.7249
rwrist -43.6084
rhand 17.2916 -0.24332
rfingers 7.12502
rthumb 42.0042 -24.832
lclavicle 6.87298e-014 1.59028e-014
lhumerus -43.086 -52.5076 87.3363
lradius 99.916
lwrist 10.6556
lhand 31.7101 29.6335
lfingers 7.12502
lthumb 55.2374 47.599
rfemur -22.7202 -2.32867 34.8349
rtibia 37.2011
rfoot -34.4216 -28.0142
rtoes 25.1383
lfemur -49.4616 5.73076 -16.302
ltibia 52.0041
lfoot -17.7149 19.6923
ltoes -14.1015
1060
root -0.407676 16.5709 16.6681 -169.171 -20.9684 -176.79
lowerback 3.79722 2.25079 1.9052
upperback -3.0947 3.13671 2.02622
thorax -5.34719 1.48362 0.775198
lowerneck -6.79555 2.97681 -0.295616
upperneck 37.7558 -1.33025 4.43447
head 14.0418 -1.41454 1.34067
rclavicle -6.42074e-014 -3.18055e-015
rhumerus -75.675 48.2628 -125.264
rradius 50.5304
rwrist -43.1601
rhand 17.8857 0.130755
rfingers 7.12502
rthumb 42.5606 -24.2686
lclavicle -6.42074e-014 -3.18055e-015
lhumerus -40.044 -50.1975 85.339
lradius 101.576
lwrist 10.1774
lhand 30.9447 27.6023
lfingers 7.12502
lthumb 54.5542 46.0585
rfemur -22.478 -2.80693 34.8245
rtibia 37.3133
rfoot -34.5308 -27.7609
rtoes 25.0799
lfemur -49.6675 5.74635 -16.654
ltibia 49.8769
lfoot -16.8502 20.0266
ltoes -16.316
1061
root -0.423252 16.552 16.6536 -169.47 -21.0761 -176.51
lowerback 4.21257 2.20538 2.10112
upperback -3.1273 3.10622 2.12269
thorax -5.61436 1.45847 0.751831
lowerneck -6.62892 3.00902 -0.225559
upperneck 37.8584 -1.40003 4.54097
head 14.0577 -1.44051 1.35943
rclavicle 1.86361e-014 -5.56597e-015
rhumerus -76.4023 48.6632 -126.183
rradius 50.4544
rwrist -43.4322
rhand 17.3094 0.672518
rfingers 7.12502
rthumb 42.0208 -23.9105
lclavicle 1.86361e-014 -5.56597e-015
lhumerus -37.3807 -48.0023 83.9582
lradius 103.095
lwrist 9.9444
lhand 33.4154 29.1635
lfingers 7.12502
lthumb 56.7486 45.9571
rfemur -22.2862 -3.10638 35.1137
rtibia 37.4389
rfoot -34.5862 -27.7119
rtoes 25.2371
lfemur -49.9763 5.92018 -16.7675
ltibia 47.889
lfoot -16.3054 20.374
ltoes -15.7162
1062
root -0.433391 16.5322 16.6391 -169.647 -21.0934 -176.185
lowerback 4.44276 2.38155 2.37276
upperback -3.22955 3.36829 2.09218
thorax -5.83692 1.57194 0.534136
lowerneck -6.0531 2.80074 0.200532
upperneck 37.5567 -1.80643 4.58197
head 13.8094 -1.56449 1.24141
rclavicle -4.52732e-014 -4.37326e-015
rhumerus -75.9916 48.2165 -125.871
rradius 50.2657
rwrist -43.3847
rhand 17.5916 0.434373
rfingers 7.12502
rthumb 42.2852 -24.0594
lclavicle -4.52732e-014 -4.37326e-015
lhumerus -35.0626 -46.6012 83.1509
lradius 104.662
lwrist 10.4435
lhand 35.8793 33.0105
lfingers 7.12502
lthumb 58.9005 47.8955
rfemur -22.2621 -3.19965 35.4583
rtibia 37.5562
rfoot -34.4276 -27.9283
rtoes 25.327
lfemur -50.481 6.32557 -16.9217
ltibia 46.0284
lfoot -16.3023 20.7147
ltoes -13.5782
1063
root -0.449778 16.5187 16.6207 -169.792 -21.1523 -175.86
lowerback 4.5586 1.96022 2.21099
upperback -2.93992 2.80407 2.73542
thorax -5.64284 1.30884 1.34569
lowerneck -6.81409 3.1076 -0.502717
upperneck 37.6145 -0.985359 4.25653
head 13.9616 -1.30724 1.35147
rclavicle 4.30369e-014 5.96354e-014
rhumerus -76.9266 50.1909 -126.457
rradius 50.5194
rwrist -43.6144
rhand 18.4474 -0.38191
rfingers 7.12502
rthumb 43.0861 -24.5974
lclavicle 4.30369e-014 5.96354e-014
lhumerus -32.6799 -43.0258 82.577
lradius 106.131
lwrist 11.1024
lhand 23.7117 25.8318
lfingers 7.12502
lthumb 47.9758 48.0559
rfemur -22.2183 -3.62732 35.7883
rtibia 37.6329
rfoot -34.3233 -27.7323
rtoes 25.4807
lfemur -50.9294 6.69067 -17.1249
ltibia 44.2495
lfoot -17.0582 21.1918
ltoes -11.8312
1064
root -0.469113 16.507 16.601 -169.936 -21.2016 -175.532
lowerback 4.7093 2.0102 2.60557
upperback -3.07234 2.90335 2.69801
thorax -5.84836 1.33647 1.07103
lowerneck -6.45515 3.04886 -0.250903
upperneck 37.5824 -1.20272 4.33174
head 13.8789 -1.37678 1.30334
rclavicle 1.92821e-014 4.37326e-015
rhumerus -77.0431 49.8763 -126.602
rradius 50.4881
rwrist -43.528
rhand 18.3108 0.0881173
rfingers 7.12502
rthumb 42.9583 -24.1725
lclavicle 1.92821e-014 4.37326e-015
lhumerus -30.5982 -41.3427 82.1565
lradius 107.144
lwrist 11.8175
lhand 23.1657 24.3328
lfingers 7.12502
lthumb 47.472 46.7883
rfemur -22.1118 -4.05314 36.1041
rtibia 37.6232
rfoot -34.2311 -27.4462
rtoes 25.6228
lfemur -51.3678 7.01092 -17.3465
ltibia 42.5977
lfoot -17.5581 21.523
ltoes -10.2346
1065
root -0.484005 16.4982 16.5815 -170.026 -21.2605 -175.307
lowerback 4.81127 1.8721 2.64663
upperback -3.01658 2.72659 2.90442
thorax -5.85656 1.24838 1.27781
lowerneck -6.70107 3.1287 -0.408397
upperneck 37.6309 -1.01428 4.27646
head 13.9465 -1.31545 1.33632
rclavicle 4.70126e-014 -6.36111e-015
rhumerus -77.4651 50.455 -127.038
rradius 50.4495
rwrist -43.6193
rhand 17.4307 1.15303
rfingers 7.12502
rthumb 42.1345 -23.3918
lclavicle 4.70126e-014 -6.36111e-015
lhumerus -28.8314 -39.7638 82.4216
lradius 108.049
lwrist 13.9901
lhand 19.7257 23.9534
lfingers 7.12502
lthumb 44.2794 47.7313
rfemur -22.0211 -4.28235 36.3133
rtibia 37.5588
rfoot -34.2164 -27.2642
rtoes 25.8247
lfemur -51.9119 7.42738 -17.7819
ltibia 41.0026
lfoot -16.6888 22.1021
ltoes -8.85064
1066
root -0.507026 16.491 16.558 -170.171 -21.3417 -174.817
lowerback 5.39022 1.78908 3.31348
upperback -3.29147 2.69719 2.90695
thorax -6.45058 1.19159 0.892676
lowerneck -7.11071 3.19402 -0.254336
upperneck 37.8923 -0.952879 4.20384
head 14.1605 -1.27704 1.29029
rclavicle -3.13086e-015 -1.98785e-015
rhumerus -77.6029 50.3792 -127.419
rradius 50.3513
rwrist -43.654
rhand 18.5962 -0.34441
rfingers 7.12502
rthumb 43.2252 -24.5103
lclavicle -3.13086e-015 -1.98785e-015
lhumerus -27.8096 -38.85 82.797
lradius 108.649
lwrist 15.6706
lhand 16.5194 21.8833
lfingers 7.12502
lthumb 41.2799 46.7101
rfemur -21.9104 -4.65482 36.758
rtibia 37.4222
rfoot -34.0357 -27.0467
rtoes 25.3074
lfemur -52.3143 7.66009 -17.751
ltibia 39.5668
lfoot -17.7469 21.7894
ltoes 0.173835
1067
root -0.534574 16.473 16.5277 -170.349 -21.418 -174.202
lowerback 5.19684 1.93508 4.00197
upperback -3.4752 2.92856 2.91501
thorax -6.50075 1.26538 0.498807
lowerneck -6.22391 3.02226 0.393901
upperneck 37.6197 -1.3194 4.02547
head 13.8539 -1.39634 1.04396
rclavicle 2.5345e-015 1.98785e-015
rhumerus -77.6305 50.1332 -127.64
rradius 50.2008
rwrist -44.1662
rhand 18.9508 -0.773387
rfingers 7.12502
rthumb 43.5564 -24.8197
lclavicle 2.5345e-015 1.98785e-015
lhumerus -26.8964 -39.2271 83.6454
lradius 109.111
lwrist 17.8734
lhand 13.0267 20.3464
lfingers 7.12502
lthumb 37.9911 46.1481
rfemur -21.767 -5.10393 37.3462
rtibia 37.2596
rfoot -33.7173 -26.9015
rtoes 24.5414
lfemur -52.7753 7.97988 -17.7182
ltibia 38.1977
lfoot -18.1495 22.2611
ltoes 5.45347
1068
root -0.563153 16.4563 16.4934 -170.571 -21.5044 -173.697
lowerback 5.29077 1.80046 4.36488
upperback -3.57912 2.7819 3.13913
thorax -6.66421 1.16923 0.544235
lowerneck -6.18614 3.17983 0.792196
upperneck 37.8095 -1.08377 3.64139
head 13.9283 -1.30079 0.845514
rclavicle -2.15681e-014 -4.45278e-014
rhumerus -78.221 50.7239 -128.357
rradius 49.9819
rwrist -44.5114
rhand 19.5672 -0.794272
rfingers 7.12502
rthumb 44.1317 -24.6279
lclavicle -2.15681e-014 -4.45278e-014
lhumerus -25.9046 -39.2682 84.4178
lradius 109.024
lwrist 20.0028
lhand 10.5452 19.2434
lfingers 7.12502
lthumb 35.6433 45.6467
rfemur -21.5029 -5.63024 37.8292
rtibia 37.1003
rfoot -33.2619 -26.872
rtoes 23.7682
lfemur -53.1573 8.39812 -17.884
ltibia 36.9169
lfoot -18.1035 22.97
ltoes 7.94898
1069
root -0.595308 16.4431 16.461 -170.782 -21.5467 -173.048
lowerback 5.35524 1.49936 4.71334
upperback -3.50798 2.40286 3.65577
thorax -6.64436 0.965129 0.932716
lowerneck -7.09183 3.62268 1.18306
upperneck 38.5092 -0.336851 2.95077
head 14.4485 -1.00678 0.596337
rclavicle -9.44227e-015 1.19271e-014
rhumerus -78.7285 51.8918 -128.729
rradius 49.7897
rwrist -44.3145
rhand 20.9269 -1.03655
rfingers 7.12502
rthumb 45.3976 -24.3778
lclavicle -9.44227e-015 1.19271e-014
lhumerus -24.6368 -38.6872 85.0161
lradius 108.605
lwrist 21.4191
lhand 9.84735 18.771
lfingers 7.12502
lthumb 34.9815 45.3313
rfemur -21.2798 -6.08515 38.4277
rtibia 36.9526
rfoot -32.86 -26.7116
rtoes 23.2156
lfemur -53.5567 8.77635 -17.8258
ltibia 35.665
lfoot -18.4829 23.8159
ltoes 11.0065
1070
root -0.632446 16.4188 16.4279 -170.896 -21.5893 -172.376
lowerback 5.14633 1.66588 5.49763
upperback -3.65718 2.66071 3.66189
thorax -6.64676 1.04485 0.482474
lowerneck -6.61208 3.3425 1.14873
upperneck 38.0468 -0.840932 3.368
head 14.132 -1.17492 0.703861
rclavicle -8.17005e-014 4.45278e-014
rhumerus -78.0758 51.3815 -128.182
rradius 49.4119
rwrist -43.9701
rhand 21.9978 -1.28104
rfingers 7.12502
rthumb 46.3914 -24.2108
lclavicle -8.17005e-014 4.45278e-014
lhumerus -24.0758 -40.2037 86.0228
lradius 108.627
lwrist 25.0634
lhand 8.01761 18.5767
lfingers 7.12502
lthumb 33.2438 45.5251
rfemur -21.1881 -6.43047 39.0433
rtibia 36.8311
rfoot -32.6921 -26.5326
rtoes 22.5114
lfemur -54.1125 9.29925 -17.996
ltibia 34.4907
lfoot -18.7561 24.8083
ltoes 12.9446
1071
root -0.670732 16.4027 16.3934 -170.884 -21.6307 -171.774
lowerback 4.70181 1.63577 6.0648
upperback -3.65129 2.60706 3.83326
thorax -6.37142 0.99177 0.366045
lowerneck -6.77055 3.33459 0.90337
upperneck 37.9089 -0.83048 3.59112
head 14.0999 -1.16329 0.842545
rclavicle 4.82053e-014 6.91771e-014
rhumerus -77.3647 51.5403 -127.544
rradius 48.9198
rwrist -43.5582
rhand 23.1613 -1.4538
rfingers 7.12502
rthumb 47.4679 -23.9111
lclavicle 4.82053e-014 6.91771e-014
lhumerus -23.1752 -41.5733 86.6461
lradius 107.854
lwrist 29.2798
lhand 6.03773 17.692
lfingers 7.12502
lthumb 31.3593 45.0244
rfemur -21.2158 -6.67037 39.5998
rtibia 36.7102
rfoot -32.6697 -26.468
rtoes 21.5592
lfemur -54.7624 9.43138 -17.9363
ltibia 33.4891
lfoot -19.1182 26.2884
ltoes 12.5658
